<?xml version="1.0" encoding="UTF-8"?>
<!DOCTYPE svg PUBLIC "-//W3C//DTD SVG 1.1//EN" "http://www.w3.org/Graphics/SVG/1.1/DTD/svg11.dtd">
<!-- Creator: CorelDRAW 2021 (64-Bit) -->
<svg xmlns="http://www.w3.org/2000/svg" xml:space="preserve" x="0px" y="0px" version="1.1"
     style="shape-rendering:geometricPrecision; text-rendering:geometricPrecision; image-rendering:optimizeQuality; fill-rule:evenodd; clip-rule:evenodd"
     viewBox="-6.66 -2.5 110.5 110.5"
>
 <defs>
  <style type="text/css">
   <![CDATA[
    .fil0 {fill:#405EA7}
    .fil1 {fill:#8FB63F}
    .fil3 {fill:#A7A8AC}
    .fil2 {fill:#FDCD0B}
   ]]>
  </style>
 </defs>
 <g id="Слой_x0020_1">
  <metadata id="CorelCorpID_0Corel-Layer"/>
  <g id="_884412032">
   <polygon class="fil0" points="-0.86,57.48 -0.86,105.21 42.79,105.21 33.92,92.26 42.79,79.3 28.24,79.3 28.24,57.48 13.84,47.86 "/>
   <polygon class="fil1" points="-0.86,52.65 13.79,43.03 28.24,52.65 28.24,25.94 38.75,25.94 47.32,13.04 38.75,0.03 -0.86,0.03 "/>
   <path class="fil2" d="M52.5 12.99l-8.07 12.95c3.34,0.05 7.38,1.35 9.72,2.39 8.67,3.99 14.55,11.86 14.55,21.88l14.55 10.51 15.39 -11.31c0,-24.02 -14.35,-37.52 -33.18,-45.29 -5.03,-2.1 -14.7,-4.09 -21.83,-4.09l4.79 7.08 4.08 5.88z"/>
   <path class="fil3" d="M83.25 66.4l-14.4 -10.76c-3.19,13.65 -8.37,19.38 -19.24,23.76l-10.11 12.81 9.81 13.1c7.38,-0.15 14.55,-2.29 19.69,-4.53 10.76,-4.38 20.82,-14.8 24.81,-25.46 1.79,-3.89 4.83,-14.65 4.83,-20.28l-15.39 11.36c-0.1,0.05 0.15,-0.15 0,0z"/>
  </g>
 </g>
</svg>
