<?xml version="1.0" encoding="utf-8"?>
<!-- Generator: Adobe Illustrator 23.0.0, SVG Export Plug-In . SVG Version: 6.00 Build 0)  -->
<svg version="1.1"
     id="svg4154" xmlns:inkscape="http://www.inkscape.org/namespaces/inkscape"
     xmlns:sodipodi="http://sodipodi.sourceforge.net/DTD/sodipodi-0.dtd"
     xmlns="http://www.w3.org/2000/svg" x="0px" y="0px" viewBox="0 0 79.4 79.4"
     style="enable-background:new 0 0 79.4 79.4;" xml:space="preserve">
<style type="text/css">
	.st0{fill-rule:evenodd;clip-rule:evenodd;fill:#ED1C24;}
</style>
<sodipodi:namedview  bordercolor="#ffffff" borderopacity="0.0" fit-margin-bottom="0" fit-margin-left="0" fit-margin-right="0" fit-margin-top="0" id="base" inkscape:current-layer="layer1" inkscape:cx="143.44787" inkscape:cy="42.853093" inkscape:document-units="px" inkscape:pageopacity="0.0" inkscape:pageshadow="0" inkscape:window-height="746" inkscape:window-maximized="1" inkscape:window-width="1366" inkscape:window-x="-8" inkscape:window-y="-8" inkscape:zoom="2.8" pagecolor="#ffffff" showgrid="false">
	</sodipodi:namedview>
<g id="layer1" transform="translate(4.262008e-7,-977.36217)" inkscape:groupmode="layer" inkscape:label="Layer 1">
	<g id="g4203" transform="matrix(0.96810443,0,0,0.96385545,77.339874,1074.5475)">
		<path id="path3461" inkscape:connector-curvature="0" class="st0" d="M-15.2-75.5c0.2-0.1,0.5,0.1,0.9,0.5c0,0,0,0,14.1,13.8
			c0.8,0.8,0.8,2.1,0,2.7c0,0,0,0-14.1,14c-0.3,0.4-0.6,0.5-0.9,0.4s-0.4-0.5-0.4-1v-29.5C-15.6-75.1-15.5-75.5-15.2-75.5z"/>
		<path id="path3463" inkscape:connector-curvature="0" class="st0" d="M-39.4-98.6h1l1,0.4c0,0,0,0,14.5,14.4
			c0.6,0.8,0.4,1.4-0.6,1.4c0,0,0,0-6,0c-1,0-1.9,0.8-1.9,1.9c0,0,0,0,0,10.7c0,1-0.8,1.9-2.1,1.9c0,0,0,0-10.6,0
			c-1,0-1.9-0.8-1.9-1.9c0,0,0,0,0-10.7c0-1-0.8-1.9-1.9-1.9h-6.4c-1,0-1.3-0.6-0.6-1.4c0,0,0,0,14.6-14.4
			C-40.3-98.2-39.4-98.6-39.4-98.6z"/>
		<path id="path3465" inkscape:connector-curvature="0" class="st0" d="M-62.2-75.8c0.3,0.1,0.4,0.5,0.4,1v30.1
			c0,0.5-0.2,0.8-0.4,0.9c-0.3,0.1-0.6,0-1-0.3c0,0,0,0-14.3-14.5c-0.8-0.6-0.8-1.9,0-2.7c0,0,0,0,14.3-14.2
			C-62.8-75.9-62.4-76-62.2-75.8z"/>
		<path id="path3467" inkscape:connector-curvature="0" class="st0" d="M-44.1-52.1c0,0,0,0,10.6,0c1.3,0,2.1,0.8,2.1,1.9
			c0,0,0,0,0,11.4c0,1.2,0.8,2.1,1.9,2.1h5.6c1,0,1.5,0.6,0.6,1.2c0,0,0,0-14.1,14.2c-0.4,0.4-0.9,0.6-1.5,0.6c-0.5,0-1-0.2-1.5-0.6
			c0,0,0,0-14.1-14.2c-0.8-0.6-0.4-1.2,0.6-1.2c0,0,0,0,6,0c1,0,1.9-0.8,1.9-2.1c0,0,0,0,0-11.4C-46-51.3-45.1-52.1-44.1-52.1z"/>
	</g>
</g>
</svg>
