<?xml version="1.0" encoding="utf-8"?>
<!-- Generator: Adobe Illustrator 23.0.0, SVG Export Plug-In . SVG Version: 6.00 Build 0)  -->
<svg version="1.1" id="Слой_1" xmlns="http://www.w3.org/2000/svg" x="0px" y="0px"
	 viewBox="0 0 289.3 53.9" style="enable-background:new 0 0 289.3 53.9;" xml:space="preserve">
<style type="text/css">
	.st0{fill:#252525;}
	.st1{fill:#CD4B44;}
	.st2{fill:#222221;}
</style>
<g>
	<path class="st0" d="M91.2,51c-0.5,0.2-1.2,0.4-2.1,0.5c-1,0.2-2.1,0.3-3.4,0.3c-1.8,0-3.3-0.2-4.6-0.7c-1.3-0.4-2.4-1.1-3.2-1.9
		c-0.9-0.8-1.5-1.8-1.9-2.9s-0.6-2.4-0.6-3.8V22.2h-6.4v-4.7h6.4V8.4h5.4v9.1h10v4.7h-10v19.5c0,0.8,0.1,1.5,0.3,2.1
		c0.2,0.7,0.6,1.2,1.1,1.7c0.5,0.5,1.1,0.9,1.8,1.1c0.8,0.3,1.7,0.4,2.7,0.4c0.7,0,1.5-0.1,2.3-0.2s1.6-0.3,2.2-0.5V51z"/>
	<path class="st0" d="M113.9,21.9h-0.4c-1.3,0-2.6,0.1-3.8,0.4c-1.2,0.2-2.4,0.6-3.5,1.1c-1.1,0.5-2.1,1.1-3,1.8s-1.6,1.5-2.2,2.5
		v23.3h-5.4V17.5h4.2l1.1,5.3h0.1c0.5-0.9,1.2-1.7,2-2.4c0.8-0.8,1.7-1.4,2.7-2s2.1-1,3.2-1.3c1.2-0.3,2.4-0.5,3.7-0.5
		c0.2,0,0.5,0,0.7,0c0.2,0,0.5,0,0.7,0.1V21.9z"/>
	<path class="st0" d="M137.2,47.2h-0.1c-0.4,0.6-1,1.1-1.7,1.7c-0.7,0.6-1.5,1-2.4,1.5c-0.9,0.4-1.9,0.8-2.9,1s-2.2,0.4-3.4,0.4
		c-1.6,0-3.1-0.2-4.4-0.7c-1.3-0.5-2.5-1.2-3.5-2.1c-1-0.9-1.7-2.1-2.3-3.4c-0.5-1.3-0.8-2.8-0.8-4.5c0-1.7,0.3-3.2,0.9-4.5
		s1.4-2.4,2.5-3.3c1.1-0.9,2.4-1.6,3.9-2.1s3.2-0.7,5-0.7c1.7,0,3.3,0.2,4.8,0.5s2.8,0.6,3.9,1.1h0.1v-2.3c0-0.9-0.1-1.7-0.2-2.4
		c-0.1-0.7-0.3-1.3-0.6-1.9c-0.6-1.1-1.6-2.1-2.9-2.8s-3.1-1.1-5.4-1.1c-1.7,0-3.3,0.2-4.8,0.5c-1.5,0.3-3,0.8-4.4,1.3v-4.6
		c0.6-0.3,1.2-0.5,2-0.8c0.8-0.2,1.6-0.5,2.4-0.6s1.7-0.3,2.7-0.4c0.9-0.1,1.9-0.1,2.8-0.1c3.4,0,6.1,0.6,8.3,1.8s3.7,2.8,4.6,4.7
		c0.4,0.8,0.6,1.6,0.8,2.5c0.2,0.9,0.2,1.9,0.2,3v22.3h-4.6L137.2,47.2z M136.9,36.3c-1-0.3-2.2-0.6-3.6-0.8
		c-1.4-0.3-2.9-0.4-4.5-0.4c-2.3,0-4.1,0.5-5.4,1.5c-1.3,1-2,2.5-2,4.5c0,1,0.2,1.9,0.5,2.7c0.3,0.8,0.8,1.4,1.3,1.9
		c0.6,0.5,1.2,0.9,2,1.1c0.8,0.2,1.6,0.4,2.5,0.4c1.2,0,2.3-0.2,3.3-0.5s1.9-0.7,2.7-1.2s1.4-0.9,2-1.4s1-0.8,1.2-1.1V36.3z"/>
	<path class="st0" d="M163.3,16.6c1.6,0,3.2,0.2,4.6,0.5c1.5,0.3,2.7,0.8,3.8,1.4v4.5c-1.5-0.6-2.8-1-4.1-1.3
		c-1.2-0.3-2.5-0.4-3.8-0.4c-1.4,0-2.7,0.2-4,0.7c-1.3,0.4-2.5,1.2-3.6,2.2s-1.9,2.4-2.5,4c-0.6,1.7-1,3.8-1,6.2
		c0,1.8,0.2,3.5,0.7,5c0.5,1.5,1.2,2.8,2.1,4s2.1,2,3.6,2.6c1.4,0.6,3.1,0.9,5,0.9c1.4,0,2.7-0.1,4.1-0.4c1.4-0.3,2.7-0.7,4-1.2v4.5
		c-0.4,0.2-0.9,0.5-1.6,0.7c-0.6,0.2-1.4,0.4-2.1,0.6s-1.6,0.3-2.5,0.4c-0.9,0.1-1.7,0.2-2.6,0.2c-2.3,0-4.4-0.3-6.4-1
		s-3.8-1.7-5.3-3.1c-1.5-1.4-2.7-3.2-3.6-5.3c-0.9-2.2-1.3-4.7-1.3-7.7c0-2.2,0.2-4.2,0.7-5.9s1.1-3.3,1.9-4.6
		c0.8-1.3,1.7-2.5,2.8-3.4c1.1-0.9,2.2-1.7,3.4-2.3c1.2-0.6,2.5-1,3.7-1.3C160.8,16.8,162.1,16.6,163.3,16.6z"/>
	<polygon class="st1" points="193.3,32.9 177.1,50.9 183.8,50.9 199.1,33.9 199.9,33.1 200.2,32.7 199.9,32.4 198.1,30.7 
		184.1,17.5 177,17.5 	"/>
	<rect x="199.8" class="st0" width="5.5" height="50.9"/>
	<path class="st0" d="M231.2,51c-0.5,0.2-1.2,0.4-2.1,0.5s-2.1,0.3-3.4,0.3c-1.8,0-3.3-0.2-4.6-0.7s-2.4-1.1-3.2-1.9
		s-1.5-1.8-1.9-2.9s-0.6-2.4-0.6-3.8V22.2h-6.4v-4.7h6.4V8.4h5.4v9.1h10v4.7h-10v19.5c0,0.8,0.1,1.5,0.3,2.1s0.6,1.2,1.1,1.7
		s1.1,0.9,1.8,1.1s1.7,0.4,2.7,0.4c0.7,0,1.5-0.1,2.3-0.2s1.6-0.3,2.2-0.5V51z"/>
	<path class="st0" d="M266.3,34.2c0,2.6-0.4,5-1.1,7.2s-1.8,4-3.2,5.5s-3,2.7-5,3.6s-4.1,1.3-6.5,1.3c-2.5,0-4.7-0.4-6.7-1.3
		s-3.6-2-5-3.6s-2.4-3.4-3.1-5.5s-1.1-4.5-1.1-7.2c0-2.6,0.4-5.1,1.1-7.2c0.8-2.2,1.8-4,3.2-5.6s3-2.7,5-3.6s4.1-1.3,6.6-1.3
		c2.5,0,4.7,0.4,6.6,1.3s3.6,2,5,3.6s2.4,3.4,3.1,5.6C266,29.2,266.3,31.6,266.3,34.2z M260.6,34.2c0-2.1-0.3-3.9-0.8-5.5
		c-0.5-1.6-1.2-3-2.1-4.1c-0.9-1.1-2-2-3.2-2.5c-1.2-0.6-2.6-0.9-4.1-0.9s-2.8,0.3-4.1,0.9c-1.2,0.6-2.3,1.4-3.2,2.5
		c-0.9,1.1-1.6,2.5-2.1,4.1c-0.5,1.6-0.8,3.4-0.8,5.5c0,2,0.3,3.9,0.8,5.5s1.2,3,2.1,4.1s2,1.9,3.2,2.5s2.6,0.9,4.1,0.9
		s2.8-0.3,4.1-0.9s2.3-1.4,3.2-2.5s1.6-2.5,2.1-4.1S260.6,36.3,260.6,34.2z"/>
	<path class="st0" d="M289.3,21.9h-0.4c-1.3,0-2.6,0.1-3.8,0.4c-1.2,0.2-2.4,0.6-3.5,1.1c-1.1,0.5-2.1,1.1-3,1.8s-1.6,1.5-2.2,2.5
		v23.3h-5.4V17.5h4.2l1.1,5.3h0.1c0.5-0.9,1.2-1.7,2-2.4c0.8-0.8,1.7-1.4,2.7-2s2.1-1,3.2-1.3s2.4-0.5,3.7-0.5c0.2,0,0.5,0,0.7,0
		c0.2,0,0.5,0,0.7,0.1V21.9z"/>
	<path class="st2" d="M0,3.4v47h47v-47H0z M44.1,47.5H2.9V6.4h41.2V47.5z"/>
	<rect x="8.9" y="12.4" class="st2" width="29.2" height="29.2"/>
</g>
</svg>
