<?xml version="1.0" encoding="utf-8"?>
<!-- Generator: Adobe Illustrator 23.0.0, SVG Export Plug-In . SVG Version: 6.00 Build 0)  -->
<svg version="1.1"
	 id="svg2"
	 xmlns="http://www.w3.org/2000/svg" x="0px" y="0px" viewBox="0 0 79.4 79.4"
	 style="enable-background:new 0 0 79.4 79.4;" xml:space="preserve">
<style type="text/css">
	.st0{fill:#FABC26;}
</style>
<g id="g10" transform="matrix(1.25,0,0,-1.25,0,76.9)">
	<g id="g12" transform="scale(0.1,0.1)">
		<path id="path14" class="st0" d="M510.4,252.1c0,0-203.7,46.1-203.7,46.1C246,312,207.9,372.3,221.7,433
			c13.7,60.7,74.1,98.8,134.8,85.1c60.7-13.7,98.8-74.1,85.1-134.8c-6.9-30.4-25.4-55.1-49.9-70.5c0,0-0.1,0-0.1-0.1
			c-0.7-0.5-1.2-1.4-1.2-2.3c0-1.3,0.9-2.4,2.1-2.7c0,0,90.6-20.5,90.6-20.5c2.2-0.5,4.4,0.3,5.7,2.1c0,0,0,0,0,0
			c25,33,40,74.2,40,118.8c0,105-82,190.8-185.5,196.9c-0.9,0.1-6.5,0.3-8.4,0.3c-45.8,0.7-92.2-12.4-132.6-40.7
			c-102-71.4-126.8-212-55.4-313.9L328.1-8.1c0.8-1.1,2-1.7,3.4-1.7c1.4,0,2.7,0.7,3.4,1.8c0,0,177.9,253.8,178,253.8
			c0.5,0.7,0.7,1.5,0.7,2.4C513.7,250,512.3,251.7,510.4,252.1"/>
	</g>
</g>
</svg>
